<svg xmlns="http://www.w3.org/2000/svg" width="16" height="20" viewBox="0 0 16 20" fill="none">
    <path
        d="M14 11.2163V8.03625C13.9986 6.61938 13.4958 5.24872 12.5806 4.16703C11.6655 3.08534 10.3971 2.3624 9 2.12626V1.03625C9 0.771038 8.89464 0.516684 8.70711 0.329148C8.51957 0.141612 8.26522 0.0362549 8 0.0362549C7.73478 0.0362549 7.48043 0.141612 7.29289 0.329148C7.10536 0.516684 7 0.771038 7 1.03625V2.12626C5.60294 2.3624 4.33452 3.08534 3.41939 4.16703C2.50425 5.24872 2.00144 6.61938 2 8.03625V11.2163C1.41645 11.4226 0.910998 11.8043 0.552938 12.3092C0.194879 12.8141 0.00173951 13.4173 0 14.0363V16.0363C0 16.3015 0.105357 16.5558 0.292893 16.7434C0.48043 16.9309 0.734784 17.0363 1 17.0363H4.14C4.37028 17.8836 4.873 18.6317 5.5706 19.165C6.26819 19.6983 7.1219 19.9873 8 19.9873C8.8781 19.9873 9.73181 19.6983 10.4294 19.165C11.127 18.6317 11.6297 17.8836 11.86 17.0363H15C15.2652 17.0363 15.5196 16.9309 15.7071 16.7434C15.8946 16.5558 16 16.3015 16 16.0363V14.0363C15.9983 13.4173 15.8051 12.8141 15.4471 12.3092C15.089 11.8043 14.5835 11.4226 14 11.2163ZM4 8.03625C4 6.97539 4.42143 5.95797 5.17157 5.20783C5.92172 4.45768 6.93913 4.03625 8 4.03625C9.06087 4.03625 10.0783 4.45768 10.8284 5.20783C11.5786 5.95797 12 6.97539 12 8.03625V11.0363H4V8.03625ZM8 18.0363C7.65097 18.0341 7.30857 17.9407 7.00683 17.7653C6.70509 17.5899 6.45451 17.3385 6.28 17.0363H9.72C9.54549 17.3385 9.29491 17.5899 8.99317 17.7653C8.69143 17.9407 8.34903 18.0341 8 18.0363ZM14 15.0363H2V14.0363C2 13.771 2.10536 13.5167 2.29289 13.3291C2.48043 13.1416 2.73478 13.0363 3 13.0363H13C13.2652 13.0363 13.5196 13.1416 13.7071 13.3291C13.8946 13.5167 14 13.771 14 14.0363V15.0363Z"
        fill="#8B8B8B" />
</svg>