<svg xmlns="http://www.w3.org/2000/svg" width="21" height="20" viewBox="0 0 21 20" fill="none">
    <path
        d="M20.3677 7.25959C20.2906 7.4859 20.2329 7.72183 20.1317 7.92887C19.7225 8.74259 19.0532 9.20001 18.148 9.21927C16.5543 9.24816 14.9605 9.24334 13.3716 9.22408C12.1679 9.20964 11.1712 8.20813 11.1567 7.00922C11.1375 5.41548 11.1375 3.82174 11.1567 2.228C11.1712 1.02908 12.1727 0.027575 13.3716 0.0131303C14.9653 -0.00612944 16.5591 -0.00131451 18.148 0.0131303C19.1976 0.0227601 20.0836 0.783518 20.3195 1.82354C20.3292 1.87651 20.3532 1.92466 20.3725 1.97762C20.3677 3.73507 20.3677 5.49733 20.3677 7.25959Z"
        fill="#11453B" />
    <path
        d="M2.35512 19.9902C2.22512 19.9517 2.09993 19.918 1.96993 19.8747C1.06472 19.5809 0.400263 18.7239 0.390633 17.7657C0.376188 16.172 0.371373 14.5782 0.390633 12.9845C0.405077 11.7856 1.40658 10.7841 2.6055 10.7696C4.19924 10.7504 5.79298 10.7504 7.3819 10.7696C8.58564 10.7841 9.58233 11.7808 9.59677 12.9845C9.61603 14.5782 9.61603 16.172 9.59677 17.7657C9.58714 18.8154 8.81675 19.7158 7.78636 19.9373C7.73339 19.9469 7.68525 19.971 7.63228 19.9854C5.87483 19.9902 4.11739 19.9902 2.35512 19.9902Z"
        fill="#11453B" />
    <path
        d="M15.2783 19.9905C14.792 19.8461 14.2816 19.7546 13.8194 19.5523C11.9512 18.7194 10.9112 16.7501 11.2 14.6748C11.4697 12.744 13.0779 11.1262 15.0279 10.8229C17.5991 10.4232 19.9825 12.1951 20.3243 14.7663C20.3291 14.8096 20.3532 14.853 20.3677 14.9011C20.3677 15.2237 20.3677 15.5415 20.3677 15.8641C20.3532 15.9074 20.334 15.9508 20.3243 15.9989C20.0017 17.9201 18.9136 19.1864 17.0694 19.8027C16.7998 19.8942 16.5157 19.9327 16.2365 20.0001C15.9187 19.9905 15.5961 19.9905 15.2783 19.9905Z"
        fill="#11453B" />
    <path
        d="M9.6064 4.64039C9.6064 5.37707 9.61121 6.11375 9.6064 6.85044C9.60158 8.23714 8.61452 9.2242 7.22782 9.22901C5.74001 9.23383 4.2522 9.23383 2.75957 9.22901C1.3825 9.2242 0.390628 8.23232 0.385813 6.85044C0.380998 5.36263 0.380998 3.87 0.385813 2.38218C0.390628 0.995486 1.3825 0.0036112 2.76439 0.0036112C4.2522 -0.00120373 5.74001 -0.00120373 7.23264 0.0036112C8.61452 0.00842612 9.6064 0.995486 9.61121 2.38218C9.61121 3.13331 9.6064 3.88444 9.6064 4.64039Z"
        fill="#11453B" />
</svg>