<svg xmlns="http://www.w3.org/2000/svg" width="21" height="20" viewBox="0 0 21 20" fill="none">
    <path
        d="M15.3779 6.25V8.75M15.3779 8.75V11.25M15.3779 8.75H17.8779M15.3779 8.75H12.8779M11.0029 5.3125C11.0029 6.8658 9.74373 8.125 8.19043 8.125C6.63713 8.125 5.37793 6.8658 5.37793 5.3125C5.37793 3.7592 6.63713 2.5 8.19043 2.5C9.74373 2.5 11.0029 3.7592 11.0029 5.3125ZM2.8787 16.0286C2.87819 15.9983 2.87793 15.9679 2.87793 15.9375C2.87793 13.0035 5.25642 10.625 8.19043 10.625C11.1244 10.625 13.5029 13.0035 13.5029 15.9375V15.9396C13.5029 15.9693 13.5027 15.999 13.5022 16.0286C11.9507 16.9627 10.1333 17.5 8.19043 17.5C6.24753 17.5 4.43013 16.9627 2.8787 16.0286Z"
        stroke="#515251" stroke-width="1.6" stroke-linecap="round" stroke-linejoin="round" />
</svg>