<svg width="21" height="22" viewBox="0 0 21 22" fill="none" xmlns="http://www.w3.org/2000/svg">
<g clip-path="url(#clip0_2098_2928)">
<path d="M12.2494 0.338623C12.675 0.422078 13.109 0.476324 13.5262 0.597334C16.009 1.29836 17.8659 3.49322 18.1705 6.05529C18.5628 9.3768 16.4931 12.4146 13.2884 13.2199C9.69983 14.1212 6.01947 11.7344 5.37686 8.08742C4.81771 4.93282 6.46595 1.93679 9.42443 0.785107C9.95437 0.580643 10.5344 0.509706 11.0935 0.376178C11.1478 0.36366 11.202 0.351141 11.2521 0.338623C11.5817 0.338623 11.9156 0.338623 12.2494 0.338623ZM16.9729 6.86898C16.9646 3.93971 14.6153 1.57793 11.7194 1.59045C8.84025 1.59879 6.49933 3.98561 6.50768 6.89402C6.51602 9.80242 8.8778 12.1725 11.757 12.1642C14.632 12.1559 16.9813 9.77321 16.9729 6.86898Z" fill="#515251"/>
<path d="M2.99425 15.5273C3.03597 15.3562 3.06101 15.206 3.11108 15.0641C3.399 14.2504 4.0124 13.8498 4.83026 13.6662C6.22395 13.3533 7.55089 13.4951 8.83192 14.1503C9.29093 14.3839 9.77497 14.5884 10.2674 14.7553C10.5636 14.8555 10.8891 14.893 11.2062 14.9055C11.8363 14.9264 12.4706 14.9097 13.1006 14.9139C13.5597 14.9139 13.8058 15.1684 13.7933 15.6274C13.7766 16.2492 13.5805 16.8083 13.205 17.3549C13.5138 17.3549 13.7933 17.3633 14.0687 17.3508C14.123 17.3466 14.1772 17.2715 14.2273 17.2214C14.8115 16.6372 15.3915 16.0489 15.9798 15.473C17.119 14.3589 18.9091 14.3255 20.0942 15.3896C20.4697 15.7276 20.4822 16.0906 20.1276 16.4453C18.6671 17.9099 17.2025 19.3704 15.742 20.8308C15.1787 21.3942 14.4985 21.6696 13.7057 21.6696C9.50791 21.6696 5.31012 21.6696 1.11233 21.6696C0.615777 21.6612 0.37793 21.4234 0.37793 20.931C0.37793 19.3704 0.37793 17.8098 0.37793 16.245C0.37793 15.7568 0.611604 15.5273 1.10816 15.5273C1.7299 15.5231 2.35581 15.5273 2.99425 15.5273ZM4.25442 20.4136C4.35456 20.4136 4.42967 20.4136 4.50478 20.4136C7.54254 20.4136 10.5845 20.4094 13.6222 20.4177C14.1313 20.4177 14.5486 20.2508 14.9075 19.8878C16.1509 18.636 17.3986 17.3925 18.6462 16.1448C18.688 16.1031 18.7213 16.0572 18.7714 16.003C18.7213 15.9821 18.6921 15.9612 18.6588 15.9529C17.9536 15.7317 17.3318 15.8778 16.8019 16.3994C16.1718 17.0253 15.5375 17.647 14.92 18.2855C14.6988 18.5108 14.461 18.6109 14.148 18.6068C12.1993 18.5984 10.2465 18.5984 8.29781 18.5984C8.0391 18.5984 7.78456 18.6026 7.52585 18.5901C7.28383 18.5775 7.10858 18.444 7.00843 18.227C6.91246 18.0142 6.93332 17.8056 7.07102 17.6136C7.21707 17.405 7.42988 17.3424 7.6719 17.3424C8.59408 17.3466 9.51626 17.3466 10.4426 17.3466C10.622 17.3466 10.8056 17.3466 10.9809 17.3299C11.6193 17.259 12.2494 16.7415 12.408 16.1532C12.0283 16.1532 11.6569 16.149 11.2855 16.1532C10.6971 16.1615 10.1213 16.0697 9.57885 15.8444C9.07812 15.6399 8.58156 15.4271 8.09752 15.1851C7.05851 14.6719 5.99445 14.6385 4.89702 14.9389C4.44636 15.0599 4.25442 15.3186 4.25442 15.7818C4.25442 16.8834 4.25442 17.9892 4.25442 19.0908C4.25442 19.5248 4.25442 19.9546 4.25442 20.4136ZM2.99425 20.401C2.99425 19.1868 2.99425 17.9892 2.99425 16.7874C2.53524 16.7874 2.09293 16.7874 1.6381 16.7874C1.6381 17.9975 1.6381 19.1951 1.6381 20.401C2.09293 20.401 2.53524 20.401 2.99425 20.401Z" fill="#515251"/>
<g clip-path="url(#clip1_2098_2928)">
<path d="M12.7684 5.00518C12.7684 4.84415 12.7723 4.68272 12.7684 4.52168C12.7653 4.43647 12.7973 4.41341 12.8783 4.41459C13.1077 4.41888 13.3375 4.42045 13.5666 4.41459C13.6643 4.41185 13.692 4.44468 13.6905 4.53966C13.6854 4.84219 13.6932 5.14511 13.6866 5.44803C13.6842 5.55904 13.7104 5.60438 13.8312 5.59969C14.0946 5.59343 14.095 5.59969 14.095 5.87095C14.095 6.03198 14.0915 6.19341 14.095 6.35445C14.0974 6.43262 14.0766 6.46389 13.9903 6.46545C13.6877 6.47171 13.6877 6.47562 13.6877 6.78557C13.6877 6.93684 13.6916 7.08849 13.6877 7.23976C13.685 7.32262 13.7131 7.34763 13.796 7.35037C14.095 7.35897 14.095 7.3621 14.095 7.65876C14.095 7.81003 14.0915 7.96168 14.095 8.11295C14.0978 8.19503 14.0704 8.22044 13.9867 8.222C13.6873 8.22825 13.6877 8.23177 13.6877 8.53039C13.6877 8.75983 13.6842 8.98966 13.6877 9.2187C13.6877 9.30938 13.6576 9.33596 13.5705 9.33401C13.3168 9.32893 13.0624 9.32854 12.8087 9.33401C12.773 9.33747 12.7371 9.32992 12.7058 9.31239C12.6745 9.29485 12.6493 9.26816 12.6336 9.2359C12.4522 8.93494 12.263 8.63866 12.0832 8.33691C12.0332 8.25249 11.9797 8.21457 11.8765 8.21653C11.5298 8.22395 11.1831 8.22239 10.8364 8.21653C10.7402 8.21653 10.7121 8.24428 10.714 8.33965C10.7199 8.62772 10.7117 8.91578 10.7183 9.20385C10.7207 9.3086 10.6867 9.33675 10.5854 9.33323C10.3658 9.32619 10.1457 9.32463 9.92644 9.33323C9.81114 9.33831 9.7873 9.29414 9.78925 9.19056C9.79551 8.91227 9.78651 8.63397 9.79355 8.35567C9.79629 8.24858 9.76932 8.21223 9.65636 8.21496C9.39643 8.22122 9.39604 8.21496 9.39604 7.95817C9.39604 7.78736 9.39917 7.61616 9.39604 7.44535C9.39604 7.36718 9.42301 7.34724 9.49767 7.34451C9.79277 7.33278 9.79277 7.33005 9.79277 7.03182C9.79277 6.88055 9.78847 6.7289 9.79277 6.57763C9.7959 6.49008 9.76893 6.46037 9.67785 6.46037C9.39604 6.45764 9.39604 6.45373 9.39604 6.16644C9.39604 6.01518 9.40073 5.86352 9.39604 5.71226C9.39213 5.62314 9.42027 5.595 9.51095 5.595C9.79355 5.5907 9.79355 5.5864 9.79355 5.29638C9.79355 5.04231 9.79629 4.78825 9.79355 4.53458C9.79355 4.44898 9.81466 4.41263 9.90846 4.41498C10.1574 4.42084 10.4064 4.42006 10.6554 4.41498C10.6889 4.41229 10.7225 4.41991 10.7515 4.43682C10.7806 4.45372 10.8038 4.47911 10.818 4.50956C11.0134 4.83555 11.2175 5.15762 11.4129 5.48438C11.4606 5.56255 11.511 5.60164 11.6083 5.60164C11.955 5.59539 12.3017 5.59617 12.6484 5.60164C12.7438 5.60164 12.777 5.57389 12.7727 5.47696C12.7653 5.32061 12.7727 5.16426 12.7727 5.00792L12.7684 5.00518ZM12.0121 6.46311C12.1939 6.75977 12.3604 7.03299 12.5292 7.30503C12.5757 7.37968 12.6535 7.34646 12.7172 7.34412C12.7954 7.34099 12.7665 7.2722 12.7669 7.22959C12.7696 7.00993 12.7669 6.79026 12.7669 6.5706C12.7669 6.51744 12.777 6.46115 12.6914 6.46233C12.4753 6.46506 12.2576 6.46311 12.0121 6.46311ZM11.4676 7.34724L10.9501 6.50845C10.9032 6.43223 10.827 6.4635 10.7641 6.46623C10.6859 6.47014 10.7179 6.53933 10.7176 6.58076C10.7144 6.80003 10.7176 7.01931 10.7176 7.23858C10.7176 7.29018 10.7035 7.3492 10.7906 7.34802C11.0064 7.34568 11.2233 7.34724 11.4676 7.34724Z" fill="#515251"/>
</g>
</g>
<defs>
<clipPath id="clip0_2098_2928">
<rect width="20" height="21.3228" fill="white" transform="translate(0.37793 0.338623)"/>
</clipPath>
<clipPath id="clip1_2098_2928">
<rect width="4.70054" height="4.92138" fill="white" transform="translate(9.39319 4.41388)"/>
</clipPath>
</defs>
</svg>
