<svg width="23" height="16" viewBox="0 0 23 16" fill="none" xmlns="http://www.w3.org/2000/svg">
<g clip-path="url(#clip0_1_1269)">
<path d="M0.646988 14.0407C0.646988 10.1758 0.646988 6.31578 0.646988 2.45083C0.656924 2.43593 0.666859 2.42103 0.671827 2.40612C0.825829 1.5616 1.7101 0.930685 2.7583 1.18901C5.67441 1.91431 8.58057 1.80502 11.4569 0.915782C14.7854 -0.117522 18.1386 -0.21191 21.5167 0.667391C22.401 0.89591 22.858 1.47218 22.858 2.37632C22.858 5.96804 22.858 9.55479 22.858 13.1465C22.858 13.221 22.858 13.2956 22.8531 13.3701C22.8034 14.3289 21.9241 15.0144 20.9802 14.8405C20.245 14.7014 19.5097 14.5325 18.7646 14.4431C16.4893 14.1699 14.2488 14.3885 12.063 15.0691C8.6849 16.1222 5.28195 16.2117 1.8641 15.2777C1.4468 15.1634 1.11396 14.9399 0.89041 14.5673C0.791054 14.4083 0.726473 14.2196 0.646988 14.0407ZM2.23669 2.734C2.23172 2.79858 2.22675 2.86316 2.22675 2.92774C2.22675 6.46979 2.23172 10.0069 2.23172 13.5489C2.23172 13.6979 2.27146 13.7625 2.42049 13.8023C3.6227 14.1152 4.84478 14.2941 6.08673 14.3388C8.06392 14.4083 9.97652 14.0656 11.8643 13.4943C14.3581 12.7342 16.9016 12.5653 19.4799 12.9478C20.0761 13.0372 20.6623 13.1614 21.2733 13.2707C21.2733 12.759 21.2733 12.2473 21.2733 11.7406C21.2733 8.66059 21.2733 5.58552 21.2733 2.50548C21.2733 2.37632 21.2981 2.25709 21.1094 2.20741C19.937 1.90437 18.7497 1.7156 17.5425 1.67089C15.5951 1.59637 13.6974 1.8845 11.8345 2.46077C9.26613 3.25065 6.65306 3.44936 3.99529 3.05194C3.41405 2.96252 2.83282 2.83832 2.23669 2.734Z" fill="#11453B"/>
<path d="M17.6966 4.83059C17.319 4.83059 16.9365 4.83556 16.5589 4.83059C16.077 4.82562 15.7193 4.49275 15.7193 4.04064C15.7193 3.58854 16.0671 3.2507 16.5539 3.24573C17.324 3.24076 18.0891 3.24076 18.8592 3.24573C19.3361 3.2507 19.6938 3.5935 19.6889 4.04561C19.6839 4.48778 19.3361 4.82065 18.8691 4.82562C18.4717 4.83556 18.0841 4.83059 17.6966 4.83059Z" fill="#11453B"/>
<path d="M5.80375 12.7543C5.42617 12.7543 5.04362 12.7593 4.66603 12.7543C4.17915 12.7493 3.82641 12.4165 3.82144 11.9693C3.81647 11.5172 4.16921 11.1744 4.65113 11.1694C5.4212 11.1645 6.18631 11.1645 6.95638 11.1694C7.43829 11.1694 7.79104 11.5172 7.78607 11.9643C7.7811 12.4115 7.42836 12.7444 6.94644 12.7493C6.56389 12.7543 6.18134 12.7543 5.80375 12.7543Z" fill="#11453B"/>
<g clip-path="url(#clip1_1_1269)">
<path d="M13.0272 5.78042C13.0272 5.58014 13.032 5.37938 13.0272 5.1791C13.0233 5.07313 13.0631 5.04445 13.1638 5.04591C13.4491 5.05126 13.7349 5.0532 14.0198 5.04591C14.1413 5.04251 14.1758 5.08334 14.1739 5.20146C14.1676 5.57771 14.1773 5.95444 14.169 6.33117C14.1661 6.46923 14.1987 6.52562 14.3489 6.51978C14.6765 6.51201 14.677 6.51978 14.677 6.85714C14.677 7.05742 14.6726 7.25818 14.677 7.45845C14.6799 7.55568 14.6542 7.59456 14.5467 7.59651C14.1705 7.60429 14.1705 7.60915 14.1705 7.99463C14.1705 8.18275 14.1754 8.37136 14.1705 8.55948C14.1671 8.66254 14.2021 8.69365 14.3051 8.69705C14.677 8.70775 14.677 8.71163 14.677 9.08059C14.677 9.26871 14.6726 9.45732 14.677 9.64544C14.6804 9.74753 14.6464 9.77912 14.5424 9.78107C14.17 9.78885 14.1705 9.79322 14.1705 10.1646C14.1705 10.4499 14.1661 10.7358 14.1705 11.0206C14.1705 11.1334 14.1331 11.1665 14.0247 11.164C13.7092 11.1577 13.3927 11.1572 13.0772 11.164C13.0328 11.1683 12.9882 11.159 12.9492 11.1371C12.9103 11.1153 12.879 11.0821 12.8595 11.042C12.6339 10.6677 12.3986 10.2993 12.175 9.92398C12.1128 9.81898 12.0462 9.77183 11.9179 9.77426C11.4867 9.7835 11.0555 9.78155 10.6243 9.77426C10.5048 9.77426 10.4698 9.80878 10.4722 9.92738C10.4795 10.2856 10.4693 10.6439 10.4775 11.0022C10.4805 11.1324 10.4382 11.1674 10.3123 11.1631C10.0391 11.1543 9.7654 11.1524 9.49269 11.1631C9.34929 11.1694 9.31964 11.1145 9.32207 10.9856C9.32985 10.6395 9.31867 10.2934 9.32742 9.94732C9.33082 9.81412 9.29728 9.76891 9.15679 9.77232C8.83353 9.78009 8.83305 9.77232 8.83305 9.45295C8.83305 9.24052 8.83694 9.0276 8.83305 8.81518C8.83305 8.71795 8.86659 8.69316 8.95943 8.68976C9.32644 8.67518 9.32644 8.67177 9.32644 8.30087C9.32644 8.11275 9.3211 7.92414 9.32644 7.73602C9.33033 7.62713 9.29679 7.59019 9.18353 7.59019C8.83305 7.58679 8.83305 7.58193 8.83305 7.22464C8.83305 7.03651 8.83888 6.8479 8.83305 6.65978C8.82819 6.54895 8.86318 6.51395 8.97596 6.51395C9.32742 6.5086 9.32742 6.50326 9.32742 6.14256C9.32742 5.8266 9.33082 5.51063 9.32742 5.19514C9.32742 5.08869 9.35367 5.04348 9.47033 5.0464C9.77998 5.05369 10.0896 5.05272 10.3993 5.0464C10.441 5.04306 10.4827 5.05254 10.5188 5.07356C10.5549 5.09459 10.5838 5.12615 10.6015 5.16403C10.8446 5.56945 11.0983 5.97 11.3414 6.37638C11.4007 6.4736 11.4634 6.52221 11.5844 6.52221C12.0156 6.51444 12.4468 6.51541 12.8779 6.52221C12.9965 6.52221 13.0379 6.4877 13.0325 6.36715C13.0233 6.1727 13.0325 5.97826 13.0325 5.78382L13.0272 5.78042ZM12.0866 7.59359C12.3126 7.96255 12.5197 8.30233 12.7297 8.64066C12.7875 8.73351 12.8843 8.69219 12.9635 8.68927C13.0607 8.68538 13.0247 8.59983 13.0252 8.54684C13.0286 8.27365 13.0252 8.00046 13.0252 7.72727C13.0252 7.66116 13.0379 7.59116 12.9314 7.59262C12.6626 7.59602 12.3918 7.59359 12.0866 7.59359ZM11.4094 8.69316L10.7658 7.64998C10.7075 7.55519 10.6127 7.59408 10.5344 7.59748C10.4372 7.60234 10.4771 7.68838 10.4766 7.73991C10.4727 8.01261 10.4766 8.28532 10.4766 8.55803C10.4766 8.62219 10.4591 8.69559 10.5675 8.69413C10.8358 8.69122 11.1056 8.69316 11.4094 8.69316Z" fill="#11453B"/>
</g>
</g>
<defs>
<clipPath id="clip0_1_1269">
<rect width="22.2061" height="15.8572" fill="white" transform="translate(0.647011 0.0714111)"/>
</clipPath>
<clipPath id="clip1_1_1269">
<rect width="5.84591" height="6.12056" fill="white" transform="translate(8.82958 5.04529)"/>
</clipPath>
</defs>
</svg>
