<svg xmlns="http://www.w3.org/2000/svg" width="18" height="20" viewBox="0 0 18 20" fill="none">
    <g clip-path="url(#clip0_2098_2965)">
        <path
            d="M13.5094 17.0472C9.63485 17.0472 5.757 17.0472 1.88247 17.0472C1.8625 17.0373 1.84253 17.0273 1.82256 17.0207C0.927154 16.8488 0.37793 16.2039 0.37793 15.311C0.37793 10.8302 0.37793 6.34598 0.37793 1.86511C0.37793 0.849882 1.09359 0.145508 2.11548 0.145508C4.61195 0.148815 7.10842 0.162042 9.6049 0.165349C10.0143 0.165349 10.3538 0.307547 10.6468 0.591942C11.9316 1.83534 13.2198 3.07544 14.5146 4.30892C14.8242 4.60324 14.964 4.94054 14.964 5.36383C14.9573 7.66875 14.9607 9.97368 14.9607 12.2786C14.9607 13.2971 14.964 14.3124 14.9607 15.3309C14.9573 16.1113 14.518 16.7429 13.8256 16.9645C13.7224 16.9943 13.6159 17.0174 13.5094 17.0472ZM9.24873 1.49473C9.1755 1.49142 9.12224 1.48481 9.06899 1.48481C6.78887 1.4782 4.50543 1.46828 2.22532 1.46166C1.7926 1.46166 1.70605 1.54764 1.70605 1.96762C1.70605 6.37575 1.70605 10.7806 1.70605 15.1887C1.70605 15.2449 1.70605 15.2978 1.70605 15.354C1.71271 15.5591 1.84918 15.7013 2.05889 15.7178C2.10882 15.7211 2.15875 15.7178 2.20868 15.7178C5.86351 15.7178 9.51835 15.7178 13.1732 15.7178C13.5393 15.7178 13.6325 15.6219 13.6325 15.2581C13.6325 12.1265 13.6325 8.99814 13.6325 5.86648C13.6325 5.80696 13.6325 5.75074 13.6325 5.68129C13.546 5.68129 13.4861 5.68129 13.4262 5.68129C12.6106 5.68129 11.7985 5.68129 10.9829 5.68129C9.96439 5.67799 9.24873 4.967 9.2454 3.95839C9.24207 3.1978 9.2454 2.44051 9.2454 1.67992C9.24873 1.62701 9.24873 1.56748 9.24873 1.49473ZM10.5769 2.36115C10.5769 2.92332 10.5769 3.4392 10.5769 3.95508C10.5769 4.23617 10.7067 4.36514 10.9929 4.36514C11.5022 4.36845 12.0115 4.36514 12.5208 4.36514C12.5541 4.36514 12.5873 4.35522 12.6439 4.3453C11.9549 3.68391 11.2859 3.04237 10.5769 2.36115Z"
            fill="#515251" />
        <path
            d="M7.6696 13.8505C9.05142 13.8505 10.4294 13.8505 11.8112 13.8505C12.3041 13.8505 12.6457 13.5111 12.6302 13.0522C12.6185 12.7206 12.3779 12.4198 12.0518 12.3427C11.9587 12.3196 11.8616 12.3118 11.7646 12.3118C9.03589 12.3118 6.3072 12.3118 3.5785 12.3118C3.12824 12.3118 2.82549 12.5355 2.73621 12.925C2.63529 13.353 2.95358 13.7965 3.39219 13.8428C3.48146 13.8505 3.57073 13.8505 3.66389 13.8505C4.99913 13.8505 6.33437 13.8505 7.6696 13.8505Z"
            fill="#515251" />
        <path
            d="M6.66873 10.7731C7.72062 10.7731 8.77251 10.7769 9.82439 10.7692C10.4066 10.7654 10.7831 10.2139 10.5541 9.70492C10.4027 9.36557 10.1233 9.23061 9.76229 9.23061C8.77639 9.23061 7.7866 9.23061 6.8007 9.23061C5.72164 9.23061 4.64647 9.23061 3.56741 9.23061C3.15985 9.23061 2.86485 9.42727 2.75229 9.75891C2.58539 10.2602 2.94637 10.7615 3.49366 10.7654C4.40969 10.7731 5.32573 10.7692 6.24177 10.7692C6.38538 10.7731 6.529 10.7731 6.66873 10.7731Z"
            fill="#515251" />
        <path
            d="M5.67489 7.69209C6.40461 7.69209 7.13045 7.69595 7.86017 7.68823C8.20951 7.68438 8.4851 7.45301 8.57437 7.11752C8.65976 6.80902 8.54332 6.46582 8.25997 6.29615C8.128 6.21903 7.96109 6.15733 7.80971 6.15733C6.37744 6.14576 4.94516 6.14961 3.51677 6.15347C3.09369 6.15347 2.77928 6.43112 2.72106 6.82445C2.66672 7.18307 2.89961 7.54555 3.26447 7.65353C3.36539 7.68438 3.48184 7.68823 3.59052 7.68823C4.28531 7.69595 4.9801 7.69209 5.67489 7.69209Z"
            fill="#515251" />
    </g>
    <defs>
        <clipPath id="clip0_2098_2965">
            <rect width="17.0126" height="19.709" fill="white"
                transform="translate(0.37793 0.145508)" />
        </clipPath>
    </defs>
</svg>