<svg xmlns="http://www.w3.org/2000/svg" width="21" height="20" viewBox="0 0 21 20" fill="none">
    <path
        d="M8.08626 18.3334L7.75293 15.6667C7.57237 15.5972 7.4021 15.5139 7.2421 15.4167C7.0821 15.3195 6.92599 15.2153 6.77376 15.1042L4.2946 16.1459L2.00293 12.1875L4.14876 10.5625C4.13487 10.4653 4.12793 10.3714 4.12793 10.2809V9.71919C4.12793 9.62863 4.13487 9.53474 4.14876 9.43752L2.00293 7.81252L4.2946 3.85419L6.77376 4.89585C6.92654 4.78474 7.08626 4.68058 7.25293 4.58335C7.4196 4.48613 7.58626 4.4028 7.75293 4.33335L8.08626 1.66669H12.6696L13.0029 4.33335C13.1835 4.4028 13.3538 4.48613 13.5138 4.58335C13.6738 4.68058 13.8299 4.78474 13.9821 4.89585L16.4613 3.85419L18.7529 7.81252L16.6071 9.43752C16.621 9.53474 16.6279 9.62863 16.6279 9.71919V10.2809C16.6279 10.3714 16.614 10.4653 16.5863 10.5625L18.7321 12.1875L16.4404 16.1459L13.9821 15.1042C13.8293 15.2153 13.6696 15.3195 13.5029 15.4167C13.3363 15.5139 13.1696 15.5972 13.0029 15.6667L12.6696 18.3334H8.08626ZM10.4196 12.9167C11.2252 12.9167 11.9127 12.632 12.4821 12.0625C13.0515 11.4931 13.3363 10.8056 13.3363 10C13.3363 9.19446 13.0515 8.50696 12.4821 7.93752C11.9127 7.36808 11.2252 7.08335 10.4196 7.08335C9.60015 7.08335 8.90904 7.36808 8.34626 7.93752C7.78349 8.50696 7.50237 9.19446 7.50293 10C7.50293 10.8056 7.78404 11.4931 8.34626 12.0625C8.90849 12.632 9.5996 12.9167 10.4196 12.9167ZM10.4196 11.25C10.0724 11.25 9.7771 11.1284 9.53376 10.885C9.29043 10.6417 9.16904 10.3467 9.1696 10C9.1696 9.6528 9.29126 9.35752 9.5346 9.11419C9.77793 8.87085 10.0729 8.74946 10.4196 8.75002C10.7668 8.75002 11.0621 8.87169 11.3054 9.11502C11.5488 9.35835 11.6702 9.65335 11.6696 10C11.6696 10.3472 11.5479 10.6425 11.3046 10.8859C11.0613 11.1292 10.7663 11.2506 10.4196 11.25ZM9.5446 16.6667H11.1904L11.4821 14.4584C11.9127 14.3472 12.3121 14.1839 12.6804 13.9684C13.0488 13.7528 13.3854 13.4925 13.6904 13.1875L15.7529 14.0417L16.5654 12.625L14.7738 11.2709C14.8432 11.0764 14.8918 10.8717 14.9196 10.6567C14.9474 10.4417 14.9613 10.2228 14.9613 10C14.9613 9.7778 14.9474 9.55919 14.9196 9.34419C14.8918 9.12919 14.8432 8.92419 14.7738 8.72919L16.5654 7.37502L15.7529 5.95835L13.6904 6.83335C13.3849 6.51391 13.0482 6.24669 12.6804 6.03169C12.3127 5.81669 11.9132 5.65335 11.4821 5.54169L11.2113 3.33335H9.56543L9.27376 5.54169C8.84321 5.6528 8.44404 5.81613 8.07626 6.03169C7.70849 6.24724 7.37154 6.50752 7.06543 6.81252L5.00293 5.95835L4.19043 7.37502L5.9821 8.70835C5.91265 8.91669 5.86404 9.12502 5.83626 9.33335C5.80849 9.54169 5.7946 9.76391 5.7946 10C5.7946 10.2222 5.80849 10.4375 5.83626 10.6459C5.86404 10.8542 5.91265 11.0625 5.9821 11.2709L4.19043 12.625L5.00293 14.0417L7.06543 13.1667C7.37099 13.4861 7.70793 13.7536 8.07626 13.9692C8.4446 14.1847 8.84376 14.3478 9.27376 14.4584L9.5446 16.6667Z"
        fill="#515251" />
</svg>