<svg xmlns="http://www.w3.org/2000/svg" width="21" height="20" viewBox="0 0 21 20" fill="none">
    <path
        d="M16.578 10.8334C16.3946 10.8334 16.203 10.775 16.0196 10.7334C15.6484 10.6516 15.2835 10.5429 14.928 10.4084C14.5414 10.2677 14.1164 10.275 13.7349 10.4289C13.3533 10.5827 13.0422 10.8722 12.8613 11.2417L12.678 11.6167C11.8663 11.1652 11.1204 10.6044 10.4613 9.95003C9.80693 9.29088 9.24614 8.54503 8.79462 7.73337L9.14462 7.50003C9.51409 7.31913 9.8036 7.00797 9.95745 6.62644C10.1113 6.24491 10.1186 5.81996 9.97795 5.43337C9.84564 5.07705 9.73707 4.71236 9.65295 4.3417C9.61129 4.15837 9.57795 3.9667 9.55295 3.77503C9.45176 3.18805 9.14431 2.65648 8.68597 2.27607C8.22763 1.89565 7.64853 1.69137 7.05295 1.70003H4.55295C4.19381 1.69666 3.83816 1.77071 3.51021 1.91714C3.18226 2.06357 2.88971 2.27895 2.65248 2.5486C2.41524 2.81826 2.2389 3.13586 2.13544 3.47979C2.03199 3.82373 2.00385 4.18591 2.05295 4.5417C2.4969 8.03285 4.09131 11.2766 6.58433 13.7606C9.07735 16.2445 12.3269 17.8271 15.8196 18.2584H16.1363C16.7508 18.2593 17.3441 18.0338 17.803 17.625C18.0666 17.3892 18.2772 17.1002 18.4208 16.777C18.5645 16.4537 18.6379 16.1037 18.6363 15.75V13.25C18.6261 12.6712 18.4153 12.1138 18.0399 11.6731C17.6645 11.2323 17.1478 10.9356 16.578 10.8334ZM16.9946 15.8334C16.9945 15.9517 16.9691 16.0686 16.9203 16.1764C16.8714 16.2841 16.8002 16.3803 16.7113 16.4584C16.6182 16.5388 16.5093 16.5988 16.3916 16.6347C16.2739 16.6706 16.1501 16.6815 16.028 16.6667C12.907 16.2665 10.0081 14.8388 7.78855 12.6086C5.56895 10.3784 4.15496 7.47281 3.76962 4.35003C3.75636 4.22796 3.76798 4.10447 3.80379 3.98703C3.8396 3.86958 3.89884 3.76061 3.97795 3.6667C4.05604 3.57781 4.15217 3.50657 4.25993 3.45771C4.3677 3.40886 4.48463 3.38352 4.60295 3.38337H7.10295C7.29674 3.37905 7.48597 3.44243 7.63807 3.56259C7.79017 3.68275 7.89563 3.85217 7.93629 4.0417C7.96962 4.26948 8.01129 4.49448 8.06129 4.7167C8.15755 5.15599 8.28567 5.58768 8.44462 6.00837L7.27795 6.55003C7.1782 6.5958 7.08847 6.66082 7.01392 6.74136C6.93936 6.8219 6.88145 6.91638 6.84351 7.01936C6.80557 7.12235 6.78835 7.23181 6.79283 7.34147C6.79731 7.45113 6.8234 7.55882 6.86962 7.65837C8.06895 10.2273 10.134 12.2924 12.703 13.4917C12.9058 13.575 13.1334 13.575 13.3363 13.4917C13.4402 13.4545 13.5357 13.3971 13.6173 13.3227C13.6988 13.2483 13.7648 13.1585 13.8113 13.0584L14.328 11.8917C14.7588 12.0458 15.1984 12.1738 15.6446 12.275C15.8668 12.325 16.0918 12.3667 16.3196 12.4C16.5091 12.4407 16.6786 12.5461 16.7987 12.6982C16.9189 12.8503 16.9823 13.0396 16.978 13.2334L16.9946 15.8334Z"
        fill="#515251" />
</svg>