<svg width="21" height="20" viewBox="0 0 21 20" fill="none" xmlns="http://www.w3.org/2000/svg">
<path d="M15.25 6.25V8.75M15.25 8.75V11.25M15.25 8.75H17.75M15.25 8.75H12.75M10.875 5.3125C10.875 6.8658 9.6158 8.125 8.0625 8.125C6.5092 8.125 5.25 6.8658 5.25 5.3125C5.25 3.7592 6.5092 2.5 8.0625 2.5C9.6158 2.5 10.875 3.7592 10.875 5.3125ZM2.75077 16.0286C2.75026 15.9983 2.75 15.9679 2.75 15.9375C2.75 13.0035 5.12849 10.625 8.0625 10.625C10.9965 10.625 13.375 13.0035 13.375 15.9375V15.9396C13.375 15.9693 13.3747 15.999 13.3742 16.0286C11.8228 16.9627 10.0054 17.5 8.0625 17.5C6.1196 17.5 4.3022 16.9627 2.75077 16.0286Z" stroke="#EA4E4B" stroke-width="1.47134" stroke-linecap="round" stroke-linejoin="round"/>
</svg>
